<svg xmlns="http://www.w3.org/2000/svg" xmlns:xlink="http://www.w3.org/1999/xlink" width="32" height="32" class="icon" p-id="7601" t="1668758033987" version="1.1" viewBox="0 0 1024 1024"><path fill="#2c2c2c" d="M932.571429 54.857143H91.428571c-20.228571 0-36.571429 16.342857-36.571428 36.571428v841.142858c0 20.228571 16.342857 36.571429 36.571428 36.571428h841.142858c20.228571 0 36.571429-16.342857 36.571428-36.571428V91.428571c0-20.228571-16.342857-36.571429-36.571428-36.571428zM513.257143 518.971429l-219.428572 184c-5.942857 5.028571-14.971429 0.8-14.971428-6.971429v-71.657143c0-2.628571 1.257143-5.257143 3.314286-6.971428L407.657143 512l-125.485714-105.371429a8.72 8.72 0 0 1-3.314286-6.971428V328c0-7.771429 9.028571-12 14.971428-6.971429l219.428572 183.885715c4.457143 3.657143 4.457143 10.4 0 14.057143zM745.142857 696c0 5.028571-3.885714 9.142857-8.571428 9.142857h-211.428572c-4.685714 0-8.571429-4.114286-8.571428-9.142857v-54.857143c0-5.028571 3.885714-9.142857 8.571428-9.142857h211.428572c4.685714 0 8.571429 4.114286 8.571428 9.142857v54.857143z" p-id="7602"/></svg>